<svg xmlns="http://www.w3.org/2000/svg" viewBox="0 0 677.81 429.34"><defs><style>.cls-1{fill:#fff;}</style></defs><g id="Layer_2" data-name="Layer 2"><g id="Layer_1-2" data-name="Layer 1"><path class="cls-1" d="M296.51,61.48c2.44,2.82,3.19,5.83,3.19,48.88,0,55.84-.94,60.73-3.38,62.24-3,1.88-4.51,1.69-4.51,3.19,0,.76.37,1.13,1.5,1.13.94,0,6-.75,9.59-.75,4.14,0,9.4.75,10.72.75,1.13,0,1.5-.37,1.5-1.13,0-1.31-3.76-1.69-5.83-3.38-2.25-2-2.82-4.78-2.82-23.69,0-2.07.76-2.63,2.26-2.63,20.49,0,40.42,32.34,60.54,32.34,9.59,0,19-8.28,19-19.56,0-4.13-1.13-7.89-2.26-7.89-.37,0-.75.18-.75.94,0,11.09-6.07,18.42-16,18.42-19.27,0-35.61-20.94-52.64-24.82v-.37a96.48,96.48,0,0,0,10.34.37c28.2,0,52.83-16.15,52.83-45.31,0-27.52-20.31-45.12-49.45-45.12-12.6,0-23.12,2.63-28.77,2.63-3.19,0-7.52-.56-8.46-.56-1.12,0-1.5.37-1.5,1.31C291.62,59.79,295,59.79,296.51,61.48Zm9.59,48.88c0-41.74,0-44.55,2.82-47.94,2.63-3.2,9.21-4.7,21.43-4.7a49.91,49.91,0,0,1,18.26,3.22l1.63,27.66,1.09-26.48c11.81,5.73,20.38,17.51,20.38,38.09,0,31-23.93,43.06-47.19,43.06-17.48,0-18.42-.57-18.42-5.83Z"/><path class="cls-1" d="M411.18,60.92c7.79,2.61,8.18,4.89,8.18,56,0,51.71-.28,54-8.18,56.6-2.61.88-3.72.94-3.72,2.07,0,.75.23,1.12,1.45,1.12s6.71-.44,19.94-.54l1.56,26.4,1.08-26.41h2.59c33.88,0,48.77.56,53.4.56,1.22,0,1.45-.37,1.45-1.12,0-1.26-1.43-4.18-1.43-8.09,0-9.17,2-19.83,2-20.68,0-1.13-.4-1.5-1.22-1.5-1,0-1.92.75-2.11,2.25-3.33,23.94-7.8,26.14-36.38,26.14-15.79,0-19.09-1.13-21.15-3.95-1.67-2.21-2.84-5.18-2.9-49.73l.06.09c0-4.66,2.27-5.07,16.05-5.07,18.05,0,20.76,3.94,22.13,16.54.14,1.32.77,1.5,1.58,1.69.4.1,1-.37,1-1.31a165.43,165.43,0,0,1-1-18.05c0-9.78,1-16.92,1-18.24,0-.94-.6-1.32-1-1.32a1.64,1.64,0,0,0-1.76,1.51c-2.13,12.67-3.9,16.54-21.95,16.54-13.59,0-16.05-.39-16.05-4.89l-.06.1c0-37.16.05-41.28,2.15-43.9s6.4-3.49,21.55-3.57l1.67,28.43,1.17-28.43c22.8,0,26.78,2.14,31.45,21.8.32,1.34,1,2.07,2.07,2.07.82,0,1.22-.37,1.22-1.5,0-.75-2-9-2-16.17,0-3.91,1.41-6.83,1.41-8.09,0-.75-.21-1.12-1.43-1.12-5.1,0-21.44.56-58.64.56-7.21,0-15.4-.56-17.47-.56-1.22,0-1.45.37-1.45,1.12C407.44,59.41,408.36,60,411.18,60.92Z"/><path class="cls-1" d="M500.51,177.3c1.5,0,6.88-1.13,12-1.13,6.11,0,14.5,1.13,16.17,1.13,1.13,0,1.69-.38,1.69-1.32s-.75-1.31-2.8-1.75c-5.53-1.82-9-5-9-10.28a24.81,24.81,0,0,1,1.52-7.73c1.5-4.17,3.53-9.78,5.9-16.36a2.29,2.29,0,0,1,2.09-1.82c1.82-.32,8.39-.51,23.09-.51,18.63,0,26,0,29.25.51,1.64.26,2.11.66,2.52,1.79,4.38,12,7.15,20.06,8,23.95l-.1.55.22,3.67c-.47,2.28-2,4.46-6.52,6-2.37.67-3.25.86-3.25,1.93s.73,1.15,1.88,1.15,4.7-.38,8.39-.65l2.4,40.85,1.7-41.1c.65,0,1.27,0,1.83,0,4.82,0,11.51.94,13.71.94.94,0,1.69-.38,1.69-1.32,0-1.14-1.56-1.65-4.94-2.63-5.14-1.47-7-3.83-11.08-14.63-9.36-24.87-24.63-65.31-35.78-94.85-1.31-3.48-1.35-4.29-1.35-5.26,0-1.3,1.24-2.09,1.24-2.9a1.27,1.27,0,0,0-1.41-1.43c-1.31,0-4.12,3.69-14.89,3.69-1.24,0-1.9.6-1.9,1.48s.73,1.28,2,1.6c4.12,1.5,5.08,2.73,5.08,4.31,0,1.33-1,3.93-2.11,7-8.21,22.75-18.65,52-30.53,81.3-6.6,15.78-7.43,18-15.83,20.7-2,.49-2.78.73-2.78,1.86C498.63,176.92,499.38,177.3,500.51,177.3Zm28.28-45.2C536,112.43,546,85.41,553.68,64c.07-.19.13-.28.24-.28s.19.09.27.3c4.6,11.79,16.64,43.15,25.68,67.46a4.42,4.42,0,0,1,.41,1.48c0,.4-.52.7-1.33.79-4,.45-14,.9-27,.9-15.63,0-20.91-.16-22.64-.67-.64-.19-.81-.42-.81-.7A3.34,3.34,0,0,1,528.79,132.1Z"/><path class="cls-1" d="M322.62,352.46c-.38,0-.75.18-.75.93,0,11-6,18.27-15.85,18.27-19.1,0-35.31-20.77-52.2-24.61v-.37a95.09,95.09,0,0,0,10.26.37c28,0,52.39-16,52.39-44.93,0-27.29-20.14-44.74-49-44.74-12.49,0-22.93,2.61-28.52,2.61-3.17,0-7.46-.56-8.39-.56-1.12,0-1.49.37-1.49,1.3,0,1.31,3.35,1.31,4.85,3,2.42,2.8,3.16,5.78,3.16,48.48,0,55.37-.93,60.21-3.35,61.71-3,1.86-4.47,1.67-4.47,3.17,0,.74.37,1.11,1.49,1.11.93,0,6-.74,9.5-.74,4.1,0,9.33.74,10.63.74,1.12,0,1.49-.37,1.49-1.11,0-1.31-3.73-1.68-5.78-3.36-2.24-2-2.79-4.74-2.79-23.49,0-2.05.74-2.61,2.23-2.61,20.32,0,40.09,32.07,60,32.07,9.51,0,18.83-8.21,18.83-19.39C324.85,356.18,323.74,352.46,322.62,352.46ZM243.38,339V312.19c0-41.39,0-44.19,2.8-47.54,2.61-3.17,9.14-4.66,21.25-4.66,21,0,41,10.77,41,42.13,0,30.7-23.73,42.69-46.8,42.69C244.31,344.81,243.38,344.25,243.38,339Z"/><path class="cls-1" d="M441.3,374.46c-5.09-1.46-6.95-3.81-11-14.51-9.28-24.66-24.42-64.77-35.48-94.05-1.3-3.45-1.34-4.26-1.34-5.22,0-1.29,1.23-2.07,1.23-2.88a1.26,1.26,0,0,0-1.4-1.41c-1.3,0-4.08,3.65-14.76,3.65-1.23,0-1.89.6-1.89,1.47s.73,1.27,2,1.59c4.08,1.49,5,2.7,5,4.27,0,1.32-1,3.9-2.09,6.9-8.14,22.55-18.49,51.58-30.27,80.61-6.55,15.64-7.36,17.8-15.7,20.53-2,.48-2.76.72-2.76,1.84,0,.93.75,1.31,1.87,1.31,1.49,0,6.82-1.12,11.93-1.12,6.06,0,14.37,1.12,16,1.12,1.12,0,1.68-.38,1.68-1.31s-.75-1.3-2.78-1.73c-5.48-1.81-9-5-9-10.2a24.87,24.87,0,0,1,1.51-7.66c1.49-4.14,3.51-9.7,5.86-16.22a2.25,2.25,0,0,1,2.07-1.81c1.29-.23,5-.39,12.42-.46l1.65,28.09,1.16-28.11c2.26,0,4.8,0,7.66,0,18.48,0,25.8,0,29,.5,1.62.26,2.09.65,2.5,1.77,5.35,14.67,8.28,23.42,8.28,25.78,0,3-.75,6.08-6.66,8.13-2.35.67-3.23.86-3.23,1.92s.73,1.14,1.87,1.14c1.64,0,9.71-.93,14.21-.93,4.77,0,11.4.93,13.59.93.93,0,1.68-.37,1.68-1.3C446.21,375.93,444.66,375.43,441.3,374.46ZM412.52,335.4c-4,.45-13.87.89-26.78.89-15.49,0-20.73-.17-22.44-.67-.64-.18-.8-.41-.8-.69a3.37,3.37,0,0,1,.27-1.19c7.16-19.5,17-46.29,24.69-67.51.07-.19.13-.28.24-.28s.19.09.26.3c4.57,11.69,16.5,42.79,25.47,66.89a4.69,4.69,0,0,1,.41,1.47C413.84,335,413.32,335.3,412.52,335.4Z"/><path class="cls-1" d="M557.34,332.32c-1.6,0-6.94.75-11.75.75-3.13,0-8.74-1.12-10-1.12-.93,0-1.3.37-1.3,1,0,1.05.48,1.14,2.72,1.89,4.92,1.66,5.61,2.94,5.61,11.44v6.14c0,16.4-16.22,25.35-37.1,25.35l-1.47,0,.24-16.45q.45-31,.9-62l.1-6.64c.16-11,.32-22.33.55-33.6a48.51,48.51,0,0,1,13.58,1.75l1.68,28.41,1.13-27.46C533,266,541,275.94,545.59,296.34a2,2,0,0,0,1.87,1.68c1.12,0,1.49-.37,1.49-1.31,0-3.54-2.8-13-2.8-39.89,0-1.31-.56-1.68-1.67-1.68-1.42,0-1.92.76-2.09,3.6-.24,4.28-1,6.84-3.69,6.84-4.63,0-12.41-9-32.81-9.13q.11-4.75.22-9.5c.09-3.45.36-5.44,1.57-6.75l.27-.3h21.73a4.54,4.54,0,0,0-4.43-3.6H508.3l-.24-.17a7.49,7.49,0,0,1-3.06-6.57l0-.26-1.12-38.44a2.21,2.21,0,0,0-2.22-2.16h-2.12c0,.66,0,1.33,0,2l0,.58c-.38,11.85-.46,24.46-.21,37.48a9.46,9.46,0,0,1-3.21,7.28l-.27.23H479.51a4.54,4.54,0,0,0-4.43,3.6H495.9l.26.21c1.64,1.34,2.42,3.48,2.61,7.18.18,3.4.33,6.54.46,9.52-28.87,3.33-49.83,29.43-49.83,61.53,0,32.58,20.57,59.79,52.39,61.77q.38,20.47.76,41c0,1.66.22,5.87.42,8.27l.95-43.24.09-5.9c.5,0,1,0,1.5,0,27.59,0,34.12-14,37.47-14,.74,0,1.34.39,1.87,1.7l3,51.52L549.23,379a8.39,8.39,0,0,0,.09-1.36v-1.46l.31-9.32-.31-.87V360.1c0-19.2.56-21.83,1.87-23.3s7.45-1.63,7.45-3.55C558.64,332.69,558.27,332.32,557.34,332.32Zm-99.56-14c0-40.5,21.33-56.31,41.57-58.89.24,5.7.4,10.75.49,15.58q.77,39.69,1.48,79.38.21,11.63.43,23.25C479.35,376,457.78,359.53,457.78,318.34Z"/><path class="cls-1" d="M594.81,375.57c-6-1.86-5.59-8.95-5.59-58,0-45.86-.37-53.88,5.59-55.74,2.43-.56,3.17-.75,3.17-1.86,0-.75-.37-1.12-1.3-1.12-1.31,0-7.83,1.12-10.63,1.12s-9.32-1.12-10.63-1.12c-.93,0-1.3.37-1.3,1.12,0,1.11.74,1.3,3.17,1.86,6,1.86,5.59,9.88,5.59,55.74,0,49,.37,56.12-5.59,58-2.43.56-3.17.75-3.17,1.87,0,.74.37,1.12,1.3,1.12,1.31,0,7.83-1.12,10.63-1.12s9.32,1.12,10.63,1.12c.93,0,1.3-.38,1.3-1.12C598,376.32,597.24,376.13,594.81,375.57Z"/><path class="cls-1" d="M674.64,375.59c-6-1.86-5.59-8.95-5.59-58,0-45.86-.37-53.88,5.59-55.74,2.43-.56,3.17-.75,3.17-1.87,0-.74-.37-1.11-1.3-1.11-1.31,0-7.83,1.11-10.63,1.11s-9.32-1.11-10.63-1.11c-.93,0-1.3.37-1.3,1.11,0,1.12.74,1.31,3.17,1.87,5.79,1.81,5.61,9.43,5.59,51.93-.09,3.61-4.63,3.79-36.72,3.79-32.26,0-36.73,0-36.73-3.91v11c0-3.73,4.47-3.73,36.73-3.73,7,0,12.66,0,17.28,0l1.61,27.38L646,321c14.25.18,16.67.89,16.7,3.61,0,42.71.08,49.19-5.59,51-2.42.56-3.17.75-3.17,1.87,0,.74.37,1.12,1.31,1.12,1.3,0,7.82-1.12,10.62-1.12s9.32,1.12,10.63,1.12c.93,0,1.3-.38,1.3-1.12C677.81,376.34,677.07,376.15,674.64,375.59Z"/><path class="cls-1" d="M178.9,225.9c.16,0,.2-.11.24-.3.14-.79.32-1,.69-1,.79,0,2.43,1.31,5.25,1.31,3.32,0,5.76-1.91,5.76-5,0-2.49-1.5-3.89-4.49-4.65l-2.18-.56c-2.5-.66-3.73-1.53-3.73-3.36s1.5-3.22,3.74-3.22c3.15,0,4.51,2.64,5.4,5.13,0,.18.15.24.26.24a.18.18,0,0,0,.2-.18c0-.18-.29-2.35-.33-2.89-.08-.94-.09-2.25-.09-2.37s-.07-.24-.24-.24-.24.13-.27.47,0,.83-.45.83c-.74,0-1.86-1.41-4.58-1.41s-5.16,1.65-5.16,4.44c0,2.34,1.44,3.74,4.34,4.48l2.15.56c2.74.7,3.86,1.81,3.86,3.69,0,2.15-1.41,3.64-4,3.64-3.89,0-5.23-3-6.24-5.76-.08-.24-.13-.29-.26-.29a.19.19,0,0,0-.21.21c0,.27.21,1.86.21,3.58,0,1.08-.07,2.13-.07,2.41S178.76,225.9,178.9,225.9Z"/><path class="cls-1" d="M222.82,209c-.13,0-1.06.15-2,.15s-2-.15-2.21-.15-.23.05-.23.17.11.21.32.27c1.12.28,1.58.64,1.58,1.4,0,.93-1.17,4.18-3.93,12.26,0,.09,0,.11-.07.11s0,0-.06-.11c-2.65-7.29-4.35-12-4.35-12.79,0-.42.26-.62.94-.82.44-.13.56-.19.56-.34s-.12-.17-.25-.17a21.6,21.6,0,0,1-2.52.17c-1.06,0-2.2-.17-2.48-.17-.13,0-.24,0-.24.17s.08.17.44.37c.94.46,1.13,1,1.64,2.29l.07.18c-1.16,3.49-2.48,7.32-3.83,11.25,0,0,0,0,0,0s0,0,0,0c-2.43-6.63-4.31-11.81-4.31-12.71,0-.55.33-.84,1.08-1,.44-.13.59-.19.59-.34s-.15-.17-.26-.17-2,.17-2.84.17c-1,0-2.65-.17-2.87-.17s-.23,0-.23.17.11.23.49.37c.95.37,1.38,1,1.91,2.3,1.64,4.28,3.67,9.36,5.51,14.31a.23.23,0,0,0,.23.19c.11,0,.17-.07.21-.18,1.59-4.52,3.16-9.11,4.65-13.46l4.93,13.46a.23.23,0,0,0,.24.15c.11,0,.17,0,.23-.18l5.06-14.35c.56-1.59,1-2.12,2.06-2.35.21,0,.25-.13.25-.23S223,209,222.82,209Z"/><path class="cls-1" d="M241.52,220.22c-.13,0-.26.1-.29.34-.57,3.94-1.75,4.63-5.36,4.6-1.84,0-2.31-.14-2.6-.51s-.47-1-.48-6.8h0c0-.62.28-.71,2-.71,2.42,0,2.82.6,3.18,2.36a.23.23,0,0,0,.22.22c.05,0,.14,0,.14-.18a24.28,24.28,0,0,1-.14-2.58c0-1.4.14-2.42.14-2.6s-.08-.18-.14-.18a.23.23,0,0,0-.24.2c-.44,1.77-.74,2.36-3.16,2.36-1.65,0-2-.09-2-.69h0c0-5,.08-5.73.39-6.11s.9-.5,2.9-.5c2.94,0,4,.41,4.9,3.67.05.2.15.3.28.3s.18-.05.18-.21a19.59,19.59,0,0,1-.36-2.88c0-.71.35-1,.35-1.17s0-.16-.2-.16c-.72,0-4.4.11-8.88.11-1.4,0-2.77-.11-3.1-.11-.16,0-.19.05-.19.16s.12.23.51.36c1.05.39,1.1.77,1.1,7.78s0,7.42-1.1,7.81c-.36.14-.51.16-.51.31s0,.16.19.16,1.28-.08,3.76-.08c4.1,0,7.73.08,8.48.08.16,0,.19-.06.19-.16s-.34-.46-.34-1.17a32.57,32.57,0,0,1,.35-3.83C241.69,220.28,241.63,220.22,241.52,220.22Z"/><path class="cls-1" d="M249.8,209c-.16,0-.19.05-.19.16s.13.23.51.36c1,.39,1.11.77,1.11,7.78s0,7.42-1.11,7.81c-.36.14-.51.16-.51.31s0,.16.2.16,1.28-.08,3.75-.08c4.1,0,7.74.08,8.48.08.16,0,.19-.06.19-.16s-.34-.46-.34-1.17a32.57,32.57,0,0,1,.35-3.83c0-.15-.05-.21-.16-.21s-.27.1-.29.34c-.57,3.94-1.76,4.63-5.37,4.6-1.84,0-2.31-.14-2.6-.51s-.46-1-.48-6.8h0c0-.62.28-.71,1.95-.71,2.42,0,2.82.6,3.18,2.36a.23.23,0,0,0,.22.22c.06,0,.14,0,.14-.18a24.28,24.28,0,0,1-.14-2.58c0-1.4.14-2.42.14-2.6s-.08-.18-.14-.18a.23.23,0,0,0-.24.2c-.43,1.77-.74,2.36-3.16,2.36-1.65,0-1.95-.09-1.95-.69h0c0-5,.08-5.73.39-6.11s.9-.5,2.9-.5c2.94,0,4,.41,4.91,3.67,0,.2.14.3.27.3s.18-.05.18-.21a20.12,20.12,0,0,1-.35-2.88c0-.71.34-1,.34-1.17s0-.16-.2-.16c-.72,0-4.4.11-8.88.11C251.5,209.12,250.13,209,249.8,209Z"/><path class="cls-1" d="M269.61,209.05a2.73,2.73,0,0,1,.28,1.17c0,1.4-.08,3.4-.08,3.63s.07.26.18.26.21-.07.27-.41c.59-3.93,1.07-4.22,3.27-4.22,1.32,0,1.83.17,2.07.5s.29,1,.3,8.19v4.22c0,2.26-.1,2.54-1.61,2.83-.27.09-.36.13-.36.26s.07.17.19.17,1.84-.12,2.82-.12,2.62.12,2.82.12.19-.05.19-.17-.09-.17-.36-.26c-1.51-.29-1.62-.57-1.61-2.84v-4.21c0-7.16,0-7.83.3-8.19s.75-.5,2.07-.5c2.2,0,2.68.29,3.27,4.22.06.34.14.41.27.41s.18-.1.18-.26-.08-2.23-.08-3.63a2.73,2.73,0,0,1,.28-1.17.18.18,0,0,0-.18-.19,51.26,51.26,0,0,1-7.16.26,51.26,51.26,0,0,1-7.16-.26A.18.18,0,0,0,269.61,209.05Z"/><path class="cls-1" d="M326.37,209c-.14,0-1.07.15-2,.15s-2-.15-2.22-.15-.22.05-.22.17.1.21.32.27c1.11.28,1.57.64,1.57,1.4,0,.93-1.16,4.18-3.93,12.26,0,.09-.05.11-.07.11s0,0-.06-.11c-2.64-7.29-4.35-12-4.35-12.79,0-.42.26-.62.95-.82.43-.13.56-.19.56-.34s-.13-.17-.26-.17a21.6,21.6,0,0,1-2.52.17c-1.06,0-2.19-.17-2.48-.17-.13,0-.23,0-.23.17s.08.17.43.37c.94.46,1.14,1,1.65,2.29l.06.18c-1.16,3.49-2.47,7.32-3.83,11.25,0,0,0,0,0,0s0,0,0,0c-2.42-6.63-4.3-11.81-4.3-12.71,0-.55.33-.84,1.07-1,.44-.13.59-.19.59-.34s-.14-.17-.26-.17-2,.17-2.83.17c-1.06,0-2.65-.17-2.88-.17s-.23,0-.23.17.12.23.49.37c1,.37,1.39,1,1.92,2.3,1.64,4.28,3.66,9.36,5.5,14.31a.23.23,0,0,0,.45,0c1.58-4.52,3.16-9.11,4.65-13.46l4.93,13.46a.22.22,0,0,0,.24.15c.11,0,.16,0,.22-.18l5.07-14.35c.56-1.59,1-2.12,2.05-2.35.21,0,.26-.13.26-.23S326.53,209,326.37,209Z"/><path class="cls-1" d="M334,225.19c-.33.12-.45.16-.45.32s.05.15.18.15,1.33-.16,2.18-.16,2,.16,2.17.16.18,0,.18-.15-.11-.2-.45-.32c-.86-.29-.84-1.21-.84-8,0-6.52,0-7.47.84-7.78.34-.11.45-.13.45-.29a.16.16,0,0,0-.18-.18c-.21,0-1.2.17-2.17.17s-2-.17-2.18-.17a.16.16,0,0,0-.18.18c0,.16.12.18.45.29.88.31.86,1.26.86,7.78C334.86,224,334.88,224.9,334,225.19Z"/><path class="cls-1" d="M360.75,208.86a98.72,98.72,0,0,1-14.32,0,.18.18,0,0,0-.18.19,2.73,2.73,0,0,1,.28,1.17c0,1.4-.07,3.4-.07,3.63s.07.26.17.26.21-.07.27-.41c.59-3.93,1.07-4.22,3.27-4.22,1.32,0,1.83.17,2.08.5s.29,1,.3,8.19v4.22c0,2.26-.11,2.54-1.62,2.83-.27.09-.35.13-.35.26s.07.17.18.17,1.84-.12,2.82-.12,2.62.12,2.83.12.18-.05.18-.17-.09-.17-.36-.26c-1.51-.29-1.62-.57-1.61-2.84v-4.21c0-7.16,0-7.83.3-8.19s.75-.5,2.07-.5c2.2,0,2.69.29,3.28,4.22,0,.34.13.41.26.41s.18-.1.18-.26-.08-2.23-.08-3.63a2.66,2.66,0,0,1,.29-1.17A.19.19,0,0,0,360.75,208.86Z"/><path class="cls-1" d="M369,225.22c-.34.11-.45.14-.45.29s.05.16.18.16,1.45-.16,2.18-.16,2,.16,2.17.16.18,0,.18-.16-.11-.18-.46-.29c-.86-.31-.84-1.25-.84-8.09,0-6.52,0-7.42.84-7.73.35-.1.46-.13.46-.29s-.05-.16-.18-.16-1.45.17-2.17.17-2-.17-2.18-.17-.18.06-.18.16.11.19.45.29c.88.31.85,1.28.85,7.8C369.88,224,369.91,224.91,369,225.22Z"/><path class="cls-1" d="M384.09,209.4c.34-.1.45-.13.45-.29s-.05-.15-.18-.15-1.44.16-2.18.16-2-.16-2.17-.16-.18,0-.18.15.11.19.46.29c.84.3.84,1.16.84,7.1,0,.63-.57.66-4.57.66s-4.56,0-4.56-.69v1.81c0-.65.57-.65,4.56-.65s4.56,0,4.57.63c0,5.82,0,6.67-.84,7-.35.11-.46.14-.46.3s.06.15.19.15,1.44-.16,2.16-.16,2,.16,2.18.16.18,0,.18-.15-.11-.19-.45-.3c-.88-.3-.85-1.18-.85-8C383.24,210.68,383.21,209.72,384.09,209.4Z"/><path class="cls-1" d="M403.82,225.22c-.35.11-.46.14-.46.29s.05.16.18.16,1.45-.16,2.18-.16,2,.16,2.17.16.18,0,.18-.16-.11-.18-.45-.29c-.87-.31-.84-1.25-.84-8.09,0-6.52,0-7.42.84-7.73.34-.1.45-.13.45-.29s-.05-.16-.18-.16-1.45.17-2.17.17-2-.17-2.18-.17-.18.06-.18.16.11.19.46.29c.87.31.85,1.28.85,7.8C404.67,224,404.69,224.91,403.82,225.22Z"/><path class="cls-1" d="M418.87,209.4c.35-.1.46-.13.46-.29s-.05-.15-.18-.15-1.45.16-2.18.16-2-.16-2.17-.16-.18,0-.18.15.11.19.45.29c.84.3.84,1.16.84,7.1,0,.63-.57.66-4.57.66s-4.56,0-4.56-.69v1.81c0-.65.57-.65,4.56-.65s4.56,0,4.57.63c0,5.82,0,6.67-.84,7-.34.11-.45.14-.45.3s.05.15.18.15,1.44-.16,2.17-.16,2,.16,2.18.16.18,0,.18-.15-.11-.19-.46-.3c-.87-.3-.85-1.18-.85-8C418,210.68,418,209.72,418.87,209.4Z"/><path class="cls-1" d="M440.23,220.22c-.14,0-.26.1-.29.34-.57,3.94-1.75,4.63-5.36,4.6-1.85,0-2.31-.14-2.61-.51s-.46-1-.48-6.8h0c0-.62.28-.71,1.95-.71,2.42,0,2.82.6,3.18,2.36,0,.17.11.2.22.22s.14,0,.14-.18a24.28,24.28,0,0,1-.14-2.58c0-1.4.14-2.42.14-2.6a.16.16,0,0,0-.14-.18.23.23,0,0,0-.24.2c-.44,1.77-.74,2.36-3.16,2.36-1.65,0-1.95-.09-1.95-.69h0c0-5,.09-5.73.39-6.11s.91-.5,2.91-.5c2.94,0,4,.41,4.9,3.67.05.2.15.3.28.3s.17-.05.17-.21a20.12,20.12,0,0,1-.35-2.88c0-.71.34-1,.34-1.17s0-.16-.19-.16c-.72,0-4.41.11-8.88.11-1.41,0-2.78-.11-3.1-.11-.16,0-.2.05-.2.16s.13.23.51.36c1.06.39,1.11.77,1.11,7.78s0,7.42-1.11,7.81c-.36.14-.5.16-.5.31s0,.16.19.16,1.28-.08,3.76-.08c4.09,0,7.73.08,8.47.08.16,0,.2-.06.2-.16s-.34-.46-.34-1.17a32.57,32.57,0,0,1,.35-3.83C440.4,220.28,440.34,220.22,440.23,220.22Z"/><path class="cls-1" d="M451.52,225.48c0-.13-.11-.18-.39-.24-.89-.28-1.37-.7-1.37-1.44a3.46,3.46,0,0,1,.2-1.07c.19-.57.45-1.34.79-2.31a.33.33,0,0,1,.34-.25c.28,0,1.16-.06,2.9-.06,2.2,0,3.29,0,3.81.07.27,0,.36.1.43.29a20.21,20.21,0,0,1,1.09,3.61c0,.41-.14.85-1,1.14-.33.09-.45.1-.45.27s.1.15.26.15,1.65-.13,2.63-.13,2.37.13,2.7.13c.13,0,.23,0,.23-.16s-.21-.23-.68-.38c-.71-.23-1-.66-1.58-2.16-1.35-3.53-3.53-9.36-4.84-12.94a2,2,0,0,1-.17-.72c0-.22.19-.32.19-.46a.18.18,0,0,0-.19-.2,10.48,10.48,0,0,1-3.24.62c-.19,0-.28.08-.28.21s.12.19.38.26c.57.2.69.33.69.52a3.69,3.69,0,0,1-.24.82c-1,2.76-2.62,7.36-4.15,11.23-.9,2.22-1.12,2.62-2.27,2.95-.26.06-.35.11-.35.25s.11.18.26.18,1-.15,1.74-.15c.87,0,2.1.15,2.34.15S451.52,225.61,451.52,225.48Zm-.35-6.23c1-2.65,2.2-6.06,3.21-8.89,0-.07,0-.09.07-.09s0,0,.07.09c.68,1.85,2.12,5.7,3.26,8.83a1,1,0,0,1,.05.22c0,.07-.07.13-.2.15-.48.05-1.84.11-3.49.11a24.24,24.24,0,0,1-2.89-.08c-.11,0-.14-.07-.14-.11A.87.87,0,0,1,451.17,219.25Z"/><path class="cls-1" d="M482.82,208.86a98.72,98.72,0,0,1-14.32,0,.19.19,0,0,0-.19.19,2.66,2.66,0,0,1,.29,1.17c0,1.4-.08,3.4-.08,3.63s.07.26.18.26.21-.07.26-.41c.59-3.93,1.07-4.22,3.28-4.22,1.31,0,1.82.17,2.07.5s.29,1,.3,8.19v4.22c0,2.26-.1,2.54-1.62,2.83-.27.09-.35.13-.35.26s.07.17.18.17,1.85-.12,2.83-.12,2.62.12,2.82.12.18-.05.18-.17-.08-.17-.35-.26c-1.51-.29-1.62-.57-1.62-2.84v-4.21c0-7.16,0-7.83.3-8.19s.76-.5,2.08-.5c2.2,0,2.68.29,3.27,4.22.06.34.14.41.27.41s.17-.1.17-.26-.07-2.23-.07-3.63a2.73,2.73,0,0,1,.28-1.17A.18.18,0,0,0,482.82,208.86Z"/><path class="cls-1" d="M200,262.09c2.33-.67,3.14-.8,3.14-1.92a1.18,1.18,0,0,0-1.31-1.3c-.12,0-.36,0-.53.05l-3.53.6a80.63,80.63,0,0,1-15.64,1.25,117.57,117.57,0,0,1-44.68-14.41q4.27-10.73,8.71-21.78c6.36-15.82,12.09-21.11,20.23-22.94,2.68-.61,3.53-1.24,3.53-2.88,0-1.37-1.09-1.92-2.74-1.92-1.45,0-9.4,1.64-16.44,1.64-8.47,0-20.15-1.64-22.48-1.64-1.64,0-2.46.55-2.46,1.92s1.15,1.48,4.08,2.55c7.21,2.66,11.81,7.32,11.81,15a36.07,36.07,0,0,1-2.22,11.27c-1.57,4.43-3.63,10-6,16.4a118.26,118.26,0,0,1,11.37-207.6c.38,11.39.44,27.28.44,49.69,0,77.65-.69,81.95-11.93,85.52-3.42,1.06-4.74,1.64-4.74,3.28,0,1.37.28,1.65,2,1.65,1.37,0,11.54-1.37,19-1.37,7.89,0,26.94,1.64,42.15,1.64,41.55,0,68.69-18.94,68.69-48.51,0-17-9-26.86-22.12-33.71-12.58-6.58-28.92-9-44.65-9h1.21v-.82c34.28-1.81,54.35-19.57,54.35-43.44,0-13.27-6-24.53-16.94-31.66C221.13,2.8,205.45,0,186.35,0c-12.83,0-27.55,2.47-37,2.47-6.83,0-17-1.92-18.78-1.92-1.42,0-2,.55-2,1.64,0,1.65.63,1.92,5,3.29,7.28,2.29,10,4.57,11,26.78a118.3,118.3,0,0,0-12.94,216.31C120,279.3,101.4,325.81,87.73,361c-.11.27-.22.41-.35.41s-.28-.14-.39-.44c-10-28-52.15-136-52.15-147.4,0-6.58,3.29-9.32,10.14-11.24,7-2,8.49-2.19,8.49-3.84s-1.64-1.91-2.74-1.91c-3.92,0-17,1.91-23.9,1.91-7.78,0-21.1-1.91-24.36-1.91-1.37,0-2.47.54-2.47,1.91,0,1.92,1.4,2.33,5.89,3.71,8.64,2.6,15.19,8.36,21.24,24.61,12.67,33.9,35,93.38,54.6,150.11a2.28,2.28,0,0,0,2.47,1.65,2.56,2.56,0,0,0,2.46-1.65c15.4-40.71,31.22-81.43,49.09-126.34a117.39,117.39,0,0,0,35.08,10.05l.07,0,.68,0c.81.1,1.62.2,2.43.28,4.43.63,12.09,2.39,12.69,7.11a13.88,13.88,0,0,0,.33,1.7c1.1,7.22,1,21,1,47.79,0,48.48.34,56-5.63,57.74-2.33.67-3.13,1-3.13,2.11,0,.74.37,1.12,1.31,1.12,1.36,0,6.59-1.12,10.62-1.12s9.27,1.12,10.63,1.12c.93,0,1.31-.38,1.31-1.12,0-1.12-.81-1.44-3.14-2.11-6-1.73-5.63-9.26-5.63-57.74C194.35,271.71,194,263.9,200,262.09ZM154.47,32.3a117.74,117.74,0,0,1,35.44-7.19C188.46,25,187,25,185.54,25a118.31,118.31,0,0,0-31.07,4.15v-11c0-4.55.47-7.95,2.93-10.14,3-2.88,16.45-4.11,27.85-4.11s21.12,1.27,28.87,3.94l1.72,29.14L217,8.83c13.38,5.56,20.28,16,20.28,32.42,0,27.9-17.43,41.8-60.27,41.8-21.16,0-22.53-.83-22.53-8.42Zm0,93V101.11c0-11.37,2.8-13,23.43-13.12l1.62,27.32L180.64,88c39.13.09,67.29,8.66,67.29,40.56,0,33-24.06,44.41-57.53,44.41-20.86,0-31.08-1.92-33.82-5.21S154.47,154.58,154.47,125.25Z"/><path class="cls-1" d="M450.61,127.51c-.08.28-.2.55-.25.83a32.52,32.52,0,0,0-.23,7,6.17,6.17,0,0,0,.27,1.41c.13.46.45.5.7.09a2.82,2.82,0,0,0,.42-1.07,20.13,20.13,0,0,0-.44-7.69,3,3,0,0,0-.3-.62Z"/><path class="cls-1" d="M178.77,144c.14.46.45.51.71.1a3,3,0,0,0,.42-1.07,20.39,20.39,0,0,0-.44-7.7,3.59,3.59,0,0,0-.31-.62l-.17,0a5.91,5.91,0,0,0-.24.82,33.24,33.24,0,0,0-.24,7.05A6.08,6.08,0,0,0,178.77,144Z"/><path class="cls-1" d="M375.78,376.57h-.17c-.08.28-.2.55-.25.83a32.52,32.52,0,0,0-.23,7,6.17,6.17,0,0,0,.27,1.41c.13.46.45.5.7.09a2.82,2.82,0,0,0,.42-1.07,20.14,20.14,0,0,0-.44-7.69A3.21,3.21,0,0,0,375.78,376.57Z"/><path class="cls-1" d="M647.23,204.19c.47.07.71.21.78.74.29,2.21.63,4.41,1,6.61.18,1.25.37,2.5.56,3.75a1,1,0,0,0,.24-.52c.47-3.22,1-6.44,1.4-9.67.09-.6.29-.84.92-.93,3-.4,6-.86,9.06-1.31.39-.05.79-.13,1.18-.2-3.41-.64-6.81-1.17-10.21-1.64-.66-.09-.87-.33-1-1-.45-3.23-.93-6.45-1.41-9.68a4.54,4.54,0,0,0-.12-.5h-.09c0,.22-.09.43-.12.65-.48,3.24-1,6.49-1.43,9.73-.06.43-.18.65-.64.71-2.23.31-4.45.65-6.67,1l-3.8.58a.78.78,0,0,0,.46.22C640.64,203.24,643.93,203.73,647.23,204.19Z"/><path class="cls-1" d="M298.46,18.06c.31.05.47.14.52.49.19,1.46.41,2.92.63,4.37.12.83.25,1.66.37,2.48a.56.56,0,0,0,.16-.34c.31-2.13.63-4.26.93-6.4a.59.59,0,0,1,.6-.61c2-.27,4-.57,6-.87.26,0,.52-.08.78-.13-2.26-.42-4.5-.77-6.76-1.08-.43-.06-.57-.23-.62-.64-.3-2.13-.62-4.26-.93-6.39,0-.12-.06-.23-.08-.34H300c0,.14-.05.29-.07.43-.32,2.15-.64,4.29-.95,6.44,0,.28-.12.43-.42.47-1.48.2-2.95.43-4.42.65l-2.51.38a.46.46,0,0,0,.31.14C294.1,17.43,296.28,17.76,298.46,18.06Z"/><path class="cls-1" d="M150.61,321.93c-.44-3.23-.93-6.45-1.41-9.67a3.14,3.14,0,0,0-.12-.51H149l-.12.65c-.48,3.25-1,6.49-1.43,9.74-.06.42-.18.64-.64.71-2.23.31-4.45.64-6.67,1l-3.8.58a.78.78,0,0,0,.46.22l9.88,1.44c.47.06.71.21.78.73.29,2.21.63,4.41,1,6.61.18,1.25.38,2.5.56,3.75a.85.85,0,0,0,.24-.52c.47-3.22,1-6.44,1.41-9.67.08-.59.28-.84.91-.92,3-.41,6-.87,9.06-1.31.4-.06.79-.14,1.18-.21q-5.11-.94-10.21-1.63C150.9,322.8,150.7,322.55,150.61,321.93Z"/><path class="cls-1" d="M269.47,78a1.4,1.4,0,0,0,0-2.79A1.4,1.4,0,0,0,269.47,78Z"/><path class="cls-1" d="M79.93,255.5a1.4,1.4,0,0,0,0,2.79A1.4,1.4,0,0,0,79.93,255.5Z"/><path class="cls-1" d="M338.85,274.4a1.4,1.4,0,0,0,0-2.79A1.4,1.4,0,0,0,338.85,274.4Z"/><path class="cls-1" d="M558.13,212.14a1.4,1.4,0,0,0,0,2.79A1.4,1.4,0,0,0,558.13,212.14Z"/><path class="cls-1" d="M621.31,117.68a1.4,1.4,0,0,0,0-2.79A1.4,1.4,0,0,0,621.31,117.68Z"/><path class="cls-1" d="M507.33,99.72a1.4,1.4,0,0,0,0-2.79A1.4,1.4,0,0,0,507.33,99.72Z"/><path class="cls-1" d="M627.5,289.88a1.4,1.4,0,0,0,0-2.79A1.4,1.4,0,0,0,627.5,289.88Z"/><path class="cls-1" d="M369.2,27.86a1.39,1.39,0,0,0,0-2.78A1.39,1.39,0,0,0,369.2,27.86Z"/><path class="cls-1" d="M520.73,304l-.17,0a4.84,4.84,0,0,0-.25.82,32.59,32.59,0,0,0-.23,7.05,6.65,6.65,0,0,0,.26,1.4c.14.46.46.51.71.1a3,3,0,0,0,.42-1.07,20.18,20.18,0,0,0-.44-7.7A3.52,3.52,0,0,0,520.73,304Z"/><path class="cls-1" d="M429.87,258.88a5.91,5.91,0,0,0-.24.82,33.26,33.26,0,0,0-.24,7.05,6.27,6.27,0,0,0,.27,1.41c.14.46.46.5.71.09a3,3,0,0,0,.42-1.07,20.13,20.13,0,0,0-.44-7.69,2.57,2.57,0,0,0-.31-.62Z"/></g></g></svg>