<?xml version="1.0" encoding="UTF-8" standalone="no"?><!DOCTYPE svg PUBLIC "-//W3C//DTD SVG 1.1//EN" "http://www.w3.org/Graphics/SVG/1.1/DTD/svg11.dtd"><svg width="100%" height="100%" viewBox="0 0 1080 1080" version="1.1" xmlns="http://www.w3.org/2000/svg" xmlns:xlink="http://www.w3.org/1999/xlink" xml:space="preserve" xmlns:serif="http://www.serif.com/" style="fill-rule:evenodd;clip-rule:evenodd;stroke-linejoin:round;stroke-miterlimit:2;"><rect id="Heart-Mail" serif:id="Heart Mail" x="0" y="0" width="1080" height="1080" style="fill:none;"/><g><path d="M1004.04,290.168c-0.453,-4.402 -2.048,-8.522 -4.487,-12.05c-2.451,-3.545 -5.806,-6.454 -9.784,-8.444c0,0 -504.433,-252.273 -504.433,-252.273c-6.037,-3.019 -12.72,-3.764 -19.031,-2.624c-6.341,1.144 -12.268,4.382 -16.89,9.345c-0,-0 -436.449,468.236 -436.449,468.236c-4.117,4.407 -6.982,9.708 -8.702,15.329c-1.725,5.638 -2.043,11.671 -1.095,17.645c-0,-0 80.127,506.659 80.127,506.659c1.048,6.56 3.611,12.684 7.159,18.129c3.555,5.457 8.355,10.06 13.944,13.677c5.6,3.624 11.892,5.824 18.34,6.835c6.46,1.012 13.121,0.52 19.574,-1.221c60.767,-16.948 258.351,-69.304 453.964,-126.615c199.307,-58.393 396.426,-121.765 450.613,-138.41c9.152,-2.878 16.836,-8.514 21.638,-16.152c4.76,-7.569 7.321,-16.676 5.962,-26.086c-0,0 -70.45,-471.98 -70.45,-471.98Zm28.857,473.428c-57.908,15.045 -256.257,64.113 -453.874,118.427c-185.167,50.892 -369.511,106.445 -440.93,127.331l-92.245,-489.912l422.602,-478.04c0,-0 5.933,-1.386 5.933,-1.386c-0,-0 510.683,239.37 510.683,239.37c2.376,1.114 4.405,2.773 5.904,4.828c1.513,2.073 2.538,4.509 2.876,7.135l-0,0l39.051,472.247Z" style="fill:#fff;"/><path d="M998.939,290.759c-0.814,-7.025 -5.161,-13.146 -11.526,-16.229c-66.393,-32.156 -436.046,-211.187 -507.558,-245.822c-7.102,-3.44 -15.622,-1.789 -20.926,4.054c-58.241,64.156 -382.579,421.441 -430.204,473.905c-3.685,4.059 -5.293,9.591 -4.357,14.993c10.389,59.991 72.311,417.547 87.521,505.379c0.861,4.969 3.79,9.339 8.059,12.024c4.269,2.685 9.477,3.431 14.329,2.054c122.492,-34.775 798.712,-226.747 906.738,-257.415c8.39,-2.382 13.817,-10.496 12.813,-19.161c-8.693,-75.032 -47.277,-408.079 -54.889,-473.782Z"/><path d="M138.873,546.629l467.743,132.111c4.329,1.227 8.82,1.227 13.017,0.113c4.192,-1.112 8.091,-3.328 11.239,-6.534c25.128,-25.596 97.264,-99.161 168.437,-171.575c78.003,-79.362 154.831,-157.359 166.978,-169.689c-0,-0 41.999,378.161 41.999,378.161c0.556,5.036 -0.719,9.913 -3.346,13.901c-2.624,3.985 -6.598,7.081 -11.44,8.557c-0,0 -821.974,250.126 -821.974,250.126c-2.669,0.812 -5.448,1.036 -8.156,0.697c-2.706,-0.338 -5.341,-1.241 -7.726,-2.684c-2.383,-1.441 -4.402,-3.357 -5.957,-5.595c-1.553,-2.236 -2.641,-4.795 -3.161,-7.529c-9.237,-48.561 -30.556,-161.004 -49.607,-260.795c-14.799,-77.516 -28.244,-147.394 -33.307,-173.818c-0.586,-3.038 -0.429,-6.125 0.403,-9.018c0.834,-2.895 2.339,-5.597 4.453,-7.861c0,-0 407.706,-437.299 407.706,-437.299c3.248,-3.481 7.462,-5.657 11.916,-6.395c4.459,-0.739 9.156,-0.039 13.359,2.211c9.315,4.992 22.569,12.04 38.622,20.697c24.606,13.269 55.827,30.245 89.863,48.765c129.331,70.374 299.176,163.236 299.176,163.236c1.945,1.044 4.372,0.313 5.416,-1.632c1.045,-1.945 0.314,-4.372 -1.631,-5.416c-0,-0 -171.221,-90.299 -301.319,-159.245c-34.238,-18.145 -65.633,-34.796 -90.285,-47.98c-16.083,-8.601 -29.279,-15.757 -38.585,-20.765c-4.731,-2.548 -10.022,-3.34 -15.051,-2.526c-5.035,0.816 -9.807,3.247 -13.495,7.162c-0,-0 -410.081,435.072 -410.081,435.072c-2.785,2.959 -4.775,6.496 -5.882,10.291c-1.107,3.797 -1.324,7.853 -0.566,11.848c5.052,26.426 18.362,96.33 33.234,173.832c19.144,99.772 40.855,212.141 50.203,260.68c0.676,3.506 2.079,6.787 4.08,9.65c2.001,2.861 4.597,5.306 7.657,7.143c3.057,1.835 6.432,2.979 9.896,3.401c3.461,0.42 7.01,0.123 10.417,-0.926c-0,-0 821.161,-252.78 821.161,-252.78c5.448,-1.673 9.916,-5.166 12.861,-9.658c2.943,-4.489 4.368,-9.975 3.731,-15.635c-0,0 -42.605,-380.477 -42.605,-380.477c-0.048,-0.432 -0.34,-0.797 -0.751,-0.94c-0.41,-0.142 -0.866,-0.036 -1.172,0.273c0,0 -83.793,84.709 -169.189,170.833c-71.491,72.1 -144.12,145.177 -169.39,170.633c-2.599,2.617 -5.81,4.419 -9.256,5.313c-3.44,0.892 -7.115,0.872 -10.653,-0.152c0,-0 -466.779,-135.473 -466.779,-135.473c-2.123,-0.608 -4.339,0.622 -4.947,2.745c-0.608,2.122 0.622,4.338 2.744,4.946Z" style="fill:#5eecff;"/><g><path d="M522.253,350.442c0,-0 -5.409,-35.752 20.015,-82.75c14.739,-27.244 89.588,-69.907 89.588,-69.907l119.265,131.076c-0,0 -60.237,62.647 -102.809,131.504c-41.79,67.591 -42.353,94.863 -42.353,94.863l6.905,3.735l37.911,-42.103l-31.794,86.94c-0,-0 -77.144,-50.074 -131.972,-79.101c-70.34,-37.238 -193.627,-43.845 -193.627,-43.845l8.295,-111.91l30.842,-95.476c-0,-0 86.394,3.106 116.619,18.436c60.795,30.834 73.115,58.538 73.115,58.538Z" style="fill:#c31034;"/><path d="M521.966,354.132c-15.632,-22.704 -35.818,-37.846 -58.773,-48.105c-33.85,-15.128 -73.726,-19.628 -113.91,-22.076c-0.393,-0.023 -0.752,0.223 -0.873,0.598l-28.32,87.002c-0.027,0.081 -0.043,0.165 -0.049,0.25l-7.526,102.054c-0.041,0.562 0.375,1.053 0.937,1.104c30.326,2.677 61.175,5.55 91.211,11.346c20.132,3.885 39.9,9.081 58.899,16.418c22.054,8.517 42.928,19.011 63.146,30.524c30.662,17.461 59.821,37.25 89.363,55.915c0.123,0.078 0.274,0.098 0.412,0.054c0.138,-0.044 0.25,-0.146 0.306,-0.28l21.007,-50.228c0.102,-0.244 0.006,-0.526 -0.224,-0.657c-0.23,-0.131 -0.521,-0.07 -0.679,0.142c-2.588,3.46 -9.781,13.349 -16.256,20.433c-3.127,3.421 -6.071,6.189 -8.232,7.2c-1.472,0.688 -3.311,-0.195 -5.086,-1.466c-2.907,-2.083 -5.585,-5.365 -6.236,-6.187c3.419,-34.755 16.052,-67.422 33.751,-98.233c25.834,-44.974 62.461,-85.992 97.07,-123.749c0.445,-0.488 0.446,-1.235 0.001,-1.724c0,0 -27.154,-29.914 -54.395,-59.75c-27.24,-29.836 -54.567,-59.593 -54.567,-59.593c-0.322,-0.355 -0.851,-0.432 -1.262,-0.184c-10.988,6.688 -21.966,13.432 -32.642,20.53c-7.167,4.766 -14.197,9.692 -21.007,14.861c-16.536,12.56 -28.289,28.82 -35.791,46.692c-7.604,18.114 -10.841,37.883 -10.274,57.109l-0.001,-0Zm0.074,1.021c0.065,0.095 0.184,0.135 0.293,0.1c0.109,-0.036 0.181,-0.139 0.178,-0.253c-0.524,-19.399 2.838,-39.355 10.671,-57.578c7.569,-17.606 19.313,-33.592 35.769,-45.87c6.824,-5.094 13.868,-9.941 21.043,-14.633c10.479,-6.853 21.238,-13.375 32.014,-19.833c3.969,4.401 28.768,31.896 53.641,59.325c24.435,26.947 48.94,53.831 53.58,58.92c-34.293,37.795 -70.466,78.828 -95.952,123.72c-17.69,31.159 -30.233,64.176 -33.453,99.249c-0.015,0.156 0.03,0.312 0.125,0.436c0,0 4.049,5.238 8.022,7.465c1.752,0.983 3.502,1.37 4.936,0.692c2.246,-1.061 5.326,-3.928 8.569,-7.503c4.931,-5.435 10.279,-12.502 13.692,-17.101c0.001,-0.002 -19.063,45.728 -19.063,45.728c-29.347,-18.648 -58.338,-38.364 -88.792,-55.828c-20.242,-11.607 -41.128,-22.226 -63.212,-30.852c-19.059,-7.444 -38.897,-12.745 -59.108,-16.724c-29.742,-5.855 -60.292,-8.848 -90.345,-11.616c0,-0 7.519,-100.911 7.519,-100.911c-0,-0 27.686,-86.371 27.686,-86.371c39.815,2.201 79.308,6.461 112.931,21.235c23.139,10.168 43.494,25.317 59.256,48.203Z"/><path d="M528.801,365.077c0.642,-2.95 1.175,-5.915 1.659,-8.888c0.726,-4.457 1.341,-8.929 2.052,-13.386c1.067,-6.684 1.815,-13.41 2.861,-20.096c0.446,-2.853 0.947,-5.698 1.551,-8.53c3.018,-14.163 12.013,-25.736 23.508,-35.81c16.13,-14.136 37.178,-25.321 53.802,-36.426c21.049,19.791 34.106,32.65 47.043,46.369c12.476,13.229 24.846,27.257 44.025,49.195c-29.903,43.176 -59.733,82.662 -81.807,125.028c-15.216,29.205 -26.763,59.777 -32.046,93.912c-44.374,-28.607 -88.593,-59.31 -138.265,-78.385c-31.762,-12.198 -65.751,-19.65 -103.44,-18.764c0,0 3.438,-80.107 3.438,-80.107c0,0 24.255,-69.102 24.255,-69.102c18.32,0.819 36.601,4.163 54.313,9.098c18.259,5.089 35.913,11.869 52.369,19.361c4.726,2.151 9.514,4.549 13.717,7.465c2.925,2.029 5.563,4.31 7.705,6.919c0.09,0.11 0.252,0.126 0.362,0.036c0.111,-0.09 0.127,-0.253 0.037,-0.363c-2.161,-2.655 -4.831,-4.974 -7.783,-7.051c-4.212,-2.965 -9.005,-5.435 -13.743,-7.645c-16.433,-7.661 -34.069,-14.631 -52.334,-19.886c-17.972,-5.172 -36.551,-8.683 -55.179,-9.602c-0.361,-0.016 -0.691,0.205 -0.812,0.546l-24.953,69.669c-0.035,0.099 -0.056,0.203 -0.06,0.308l-3.463,81.38c-0.012,0.29 0.096,0.571 0.3,0.777c0.203,0.206 0.484,0.319 0.773,0.31c37.872,-1.236 72.026,6.025 103.936,18.123c49.899,18.92 94.32,49.642 138.932,78.146c0.14,0.09 0.315,0.103 0.466,0.034c0.151,-0.068 0.258,-0.208 0.283,-0.371c5.349,-34.282 16.997,-64.941 32.425,-94.161c22.409,-42.442 52.758,-81.854 83.095,-125.07c0.318,-0.455 0.284,-1.067 -0.08,-1.486c-19.496,-22.437 -31.913,-36.74 -44.563,-50.111c-13.12,-13.867 -26.483,-26.733 -48.082,-46.775c-0.375,-0.35 -0.943,-0.394 -1.367,-0.105c-16.678,11.459 -38.073,23 -54.342,37.556c-11.608,10.386 -20.613,22.302 -23.53,36.767c-0.576,2.857 -1.048,5.727 -1.466,8.603c-0.972,6.697 -1.645,13.431 -2.638,20.127c-0.662,4.465 -1.228,8.943 -1.904,13.407c-0.449,2.968 -0.947,5.93 -1.555,8.877c-0.029,0.14 0.06,0.277 0.199,0.306c0.139,0.03 0.276,-0.06 0.306,-0.199Z"/><path d="M540.762,389.07c2.223,-20.241 3.898,-41.933 10.535,-62.121c4.256,-12.943 10.554,-25.267 20.385,-36.178c3.45,-3.835 9.043,-8.253 15.171,-12.615c8.344,-5.941 17.679,-11.765 24.042,-15.847c8.519,11.51 18.18,22.1 27.82,32.647c6.586,7.205 13.166,14.387 19.319,21.875c6.454,7.855 12.455,16.032 17.52,24.905c-20.42,38.117 -45.401,74.484 -64.94,112.532c-6.688,13.025 -12.732,26.248 -17.759,39.8c-4.955,13.36 -8.929,27.038 -11.493,41.186c-20.581,-15.786 -42.963,-29.907 -66.592,-42.384c-23.304,-12.306 -47.822,-23.014 -73.054,-32.078c-11.575,-4.158 -29.819,-7.594 -43.63,-14.549c-6.207,-3.126 -11.514,-6.958 -14.828,-11.946c-2.196,-3.305 -3.385,-7.747 -4.022,-12.347c-1.061,-7.654 -0.562,-15.759 -0.259,-20.088c0.658,-9.681 3.174,-19.705 6.533,-29.622c4.962,-14.65 11.782,-29.062 17.43,-41.73c22.722,4.432 43.991,10.861 63.859,19.479c20.835,9.038 40.129,20.481 57.933,34.578c0.112,0.088 0.274,0.07 0.363,-0.041c0.089,-0.111 0.071,-0.273 -0.041,-0.362c-17.722,-14.317 -36.963,-25.994 -57.779,-35.257c-20.086,-8.937 -41.635,-15.624 -64.689,-20.288c-0.409,-0.08 -0.819,0.132 -0.989,0.511c-5.817,12.836 -12.949,27.49 -18.087,42.428c-3.468,10.082 -6.019,20.296 -6.713,30.153c-0.303,4.427 -0.804,12.715 0.299,20.538c0.697,4.934 2.039,9.68 4.409,13.217c3.52,5.253 9.104,9.322 15.673,12.59c13.921,6.925 32.285,10.28 43.948,14.394c25.216,8.893 49.741,19.408 73.041,31.568c23.878,12.462 46.469,26.649 67.238,42.516c0.137,0.105 0.319,0.131 0.48,0.069c0.161,-0.062 0.278,-0.204 0.308,-0.375c2.569,-14.367 6.573,-28.256 11.654,-41.79c5.063,-13.488 11.189,-26.624 17.947,-39.558c19.912,-38.105 45.376,-74.431 66.161,-112.597c0.193,-0.357 0.19,-0.789 -0.009,-1.144c-5.149,-9.247 -11.285,-17.769 -17.933,-25.927c-6.152,-7.551 -12.729,-14.801 -19.361,-22.03c-9.85,-10.737 -19.815,-21.433 -28.512,-33.167c-0.372,-0.504 -1.072,-0.631 -1.597,-0.289c-6.336,4.178 -16.163,10.41 -24.891,16.762c-6.21,4.52 -11.864,9.105 -15.345,13.059c-9.853,11.204 -16.119,23.792 -20.277,36.994c-6.408,20.343 -7.812,42.134 -9.781,62.476c-0.015,0.142 0.088,0.269 0.23,0.283c0.141,0.015 0.268,-0.088 0.283,-0.23Z"/></g></g></svg>