<?xml version="1.0" encoding="UTF-8" standalone="no"?><!DOCTYPE svg PUBLIC "-//W3C//DTD SVG 1.1//EN" "http://www.w3.org/Graphics/SVG/1.1/DTD/svg11.dtd"><svg width="100%" height="100%" viewBox="0 0 101 101" version="1.1" xmlns="http://www.w3.org/2000/svg" xmlns:xlink="http://www.w3.org/1999/xlink" xml:space="preserve" xmlns:serif="http://www.serif.com/" style="fill-rule:evenodd;clip-rule:evenodd;stroke-linejoin:round;stroke-miterlimit:2;"><g id="facebook-white-circle"><path d="M50.5,0.5c-27.614,0 -50,22.386 -50,50c0,27.614 22.386,50 50,50c27.614,0 50,-22.386 50,-50c0,-27.614 -22.386,-50 -50,-50Zm19.141,26.953l-9.375,0c-2.589,0 -4.688,2.099 -4.688,4.688l0,9.375l14.063,-0l-1.563,12.5l-12.5,-0l0,31.25l-12.5,-0l0,-31.25l-11.328,-0l-0,-12.5l11.328,-0l0,-9.628c0,-9.188 7.734,-16.48 16.905,-15.94l9.658,0.568l-0,10.937Z" style="fill:#fff;fill-rule:nonzero;"/></g></svg>