<?xml version="1.0" encoding="UTF-8" standalone="no"?><!DOCTYPE svg PUBLIC "-//W3C//DTD SVG 1.1//EN" "http://www.w3.org/Graphics/SVG/1.1/DTD/svg11.dtd"><svg width="100%" height="100%" viewBox="0 0 101 101" version="1.1" xmlns="http://www.w3.org/2000/svg" xmlns:xlink="http://www.w3.org/1999/xlink" xml:space="preserve" xmlns:serif="http://www.serif.com/" style="fill-rule:evenodd;clip-rule:evenodd;stroke-linejoin:round;stroke-miterlimit:2;"><g id="instagram-white-circle"><path d="M64.008,24.719l-27.016,-0c-6.765,-0 -12.273,5.508 -12.273,12.273l-0,27.016c-0,6.765 5.508,12.273 12.273,12.273l27.016,0c6.765,0 12.273,-5.508 12.273,-12.273l0,-27.016c0,-6.765 -5.508,-12.273 -12.273,-12.273Zm-13.508,41.836c-8.852,-0 -16.055,-7.203 -16.055,-16.055c0,-8.852 7.203,-16.055 16.055,-16.055c8.852,0 16.055,7.203 16.055,16.055c-0,8.852 -7.203,16.055 -16.055,16.055Zm16.492,-28.828c-2.07,-0 -3.75,-1.68 -3.75,-3.754c0,-2.071 1.68,-3.75 3.75,-3.75c2.074,-0 3.754,1.679 3.754,3.75c0,2.074 -1.68,3.754 -3.754,3.754Zm-16.492,2.187c-5.836,0 -10.586,4.75 -10.586,10.586c0,5.836 4.75,10.586 10.586,10.586c5.836,-0 10.586,-4.75 10.586,-10.586c-0,-5.836 -4.75,-10.586 -10.586,-10.586Zm0,-39.414c-27.613,0 -50,22.387 -50,50c0,27.613 22.387,50 50,50c27.613,0 50,-22.387 50,-50c0,-27.613 -22.387,-50 -50,-50Zm31.25,63.508c0,9.781 -7.961,17.742 -17.742,17.742l-27.016,-0c-9.781,-0 -17.742,-7.961 -17.742,-17.742l0,-27.016c0,-9.781 7.961,-17.742 17.742,-17.742l27.016,-0c9.781,-0 17.742,7.961 17.742,17.742l0,27.016Z" style="fill:#fff;fill-rule:nonzero;"/></g></svg>