<?xml version="1.0" encoding="UTF-8" standalone="no"?><!DOCTYPE svg PUBLIC "-//W3C//DTD SVG 1.1//EN" "http://www.w3.org/Graphics/SVG/1.1/DTD/svg11.dtd"><svg width="100%" height="100%" viewBox="0 0 101 101" version="1.1" xmlns="http://www.w3.org/2000/svg" xmlns:xlink="http://www.w3.org/1999/xlink" xml:space="preserve" xmlns:serif="http://www.serif.com/" style="fill-rule:evenodd;clip-rule:evenodd;stroke-linejoin:round;stroke-miterlimit:2;"><g id="pinterest-white-circle"><g><path d="M50.5,0.5c-27.648,-0 -50.038,22.389 -50.038,50.038c0,21.187 13.148,39.293 31.781,46.581c-0.451,-3.982 -0.826,-9.992 0.15,-14.35c0.902,-3.907 5.861,-24.869 5.861,-24.869c-0,0 -1.503,-3.005 -1.503,-7.438c-0,-6.987 4.057,-12.171 9.016,-12.171c4.282,0 6.311,3.231 6.311,7.062c-0,4.283 -2.705,10.744 -4.132,16.68c-1.203,4.958 2.479,9.015 7.438,9.015c8.865,0 15.702,-9.391 15.702,-22.915c0,-11.946 -8.64,-20.36 -20.887,-20.36c-14.199,-0 -22.614,10.668 -22.614,21.713c-0,4.282 1.653,8.94 3.756,11.42c0.376,0.526 0.451,0.901 0.376,1.427c-0.376,1.578 -1.202,4.959 -1.352,5.635c-0.226,0.902 -0.752,1.127 -1.653,0.676c-6.236,-2.93 -10.143,-12.021 -10.143,-19.384c0,-15.777 11.495,-30.278 33.058,-30.278c17.355,0 30.804,12.397 30.804,28.851c-0,17.205 -10.894,31.104 -25.92,31.104c-5.034,0 -9.843,-2.629 -11.496,-5.71c0,0 -2.479,9.542 -3.08,11.871c-1.127,4.358 -4.207,9.767 -6.236,13.148c4.658,1.428 9.617,2.254 14.801,2.254c27.648,0 50.038,-22.389 50.038,-50.038c-0,-27.573 -22.39,-49.962 -50.038,-49.962Z" style="fill:#fff;fill-rule:nonzero;"/></g></g></svg>