<?xml version="1.0" encoding="UTF-8" standalone="no"?><!DOCTYPE svg PUBLIC "-//W3C//DTD SVG 1.1//EN" "http://www.w3.org/Graphics/SVG/1.1/DTD/svg11.dtd"><svg width="100%" height="100%" viewBox="0 0 101 101" version="1.1" xmlns="http://www.w3.org/2000/svg" xmlns:xlink="http://www.w3.org/1999/xlink" xml:space="preserve" xmlns:serif="http://www.serif.com/" style="fill-rule:evenodd;clip-rule:evenodd;stroke-linejoin:round;stroke-miterlimit:2;"><g id="tiktok-white-circle"><path d="M50.5,0.5c27.596,-0 50,22.404 50,50c0,27.596 -22.404,50 -50,50c-27.596,0 -50,-22.404 -50,-50c0,-27.596 22.404,-50 50,-50Zm-13.67,65.228c-5.44,-7.129 1.785,-17.398 10.36,-14.68l0,-8.865l0.002,0l-0,-2.524l-0.446,-0.056l-0.479,-0.05l-0.141,-0.012c-0.73,-0.062 -1.463,-0.086 -2.196,-0.07l-0,0.001l-0,-0.001c-9.276,0.192 -17.045,6.51 -19.421,15.072l-0.115,0.432l-0.118,0.49l-0.106,0.494l-0.095,0.499l-0.082,0.503l-0.07,0.507l-0.058,0.511l-0.045,0.515l-0.025,0.388l-0.019,0.39l-0.011,0.392l-0.003,0.261l0.003,0.526l0.017,0.521l0.012,0.25l0.026,0.398l0.037,0.431l0.016,0.161l0.055,0.479c0.582,4.554 2.651,8.643 5.705,11.764l0,-0c12.645,12.922 35.334,3.675 35.334,-14.397l-0,-22.733c4.377,3.127 9.74,4.967 15.532,4.967l0,-11.141l-0.41,-0.004l-0.108,-0.004c-0.71,-0.023 -1.417,-0.094 -2.117,-0.213l-0.094,-0.016c-1.502,-0.266 -2.959,-0.752 -4.324,-1.444l-0.281,-0.147l-0.202,-0.109l-0.264,-0.149l-0.265,-0.157l-0.128,-0.078c-1.229,-0.76 -2.344,-1.685 -3.315,-2.745l-0.001,-0.001c-1.96,-2.14 -3.331,-4.829 -3.853,-7.81l0,-0c-0.074,-0.424 -0.131,-0.851 -0.171,-1.279l0,-1.433l-11.211,-0l0,44.496c-0.018,5.187 -4.229,9.387 -9.424,9.387c-3.06,-0 -5.779,-1.458 -7.501,-3.717Z" style="fill:#fff;"/></g></svg>