<?xml version="1.0" encoding="UTF-8" standalone="no"?><!DOCTYPE svg PUBLIC "-//W3C//DTD SVG 1.1//EN" "http://www.w3.org/Graphics/SVG/1.1/DTD/svg11.dtd"><svg width="100%" height="100%" viewBox="0 0 101 101" version="1.1" xmlns="http://www.w3.org/2000/svg" xmlns:xlink="http://www.w3.org/1999/xlink" xml:space="preserve" xmlns:serif="http://www.serif.com/" style="fill-rule:evenodd;clip-rule:evenodd;stroke-linejoin:round;stroke-miterlimit:2;"><g id="twitter-white-circle"><path d="M50.5,0.5c-27.613,0 -50,22.387 -50,50c0,27.613 22.387,50 50,50c27.613,0 50,-22.387 50,-50c0,-27.613 -22.387,-50 -50,-50Zm25.031,37.145l0.043,1.671c0,19.774 -12.992,36.77 -36.765,36.77c-7.301,-0 -14.09,-2.141 -19.809,-5.816c1.012,0.117 2.039,0.179 3.082,0.179c6.055,0 11.629,-2.058 16.047,-5.523c-5.652,-0.102 -10.324,-3.547 -11.969,-8.684c1.996,0.32 4.399,0.047 5.738,-0.504c-2.953,-0.597 -5.543,-2.199 -7.398,-4.437c-1.852,-2.235 -2.965,-5.106 -2.965,-8.235c1.742,0.969 3.735,1.387 5.852,1.461c-3.465,-2.316 -5.746,-6.273 -5.746,-10.757c-0,-2.368 0.632,-4.59 1.746,-6.493c6.375,7.817 15.898,12.961 26.636,13.5c-0.222,-0.945 -0.336,-1.933 -0.336,-2.945c0,-7.133 5.79,-12.918 12.926,-12.918c3.719,0 6.852,1.559 9.028,3.68c2.441,-0.082 5.812,-1.254 8.613,-2.735c-0.965,3.012 -3.012,5.547 -5.68,7.145c2.614,-0.102 4.856,-0.645 7.172,-1.672c-1.726,2.59 -3.676,4.504 -6.215,6.313Z" style="fill:#fff;fill-rule:nonzero;"/></g></svg>